<?xml version="1.0" standalone="no"?>
<!DOCTYPE svg PUBLIC "-//W3C//DTD SVG 20010904//EN"
 "http://www.w3.org/TR/2001/REC-SVG-20010904/DTD/svg10.dtd">
<svg version="1.0" xmlns="http://www.w3.org/2000/svg"
 width="260.000000pt" height="260.000000pt" viewBox="0 0 260.000000 260.000000"
 preserveAspectRatio="xMidYMid meet">
<metadata>
Created by potrace 1.11, written by Peter Selinger 2001-2013
</metadata>
<g transform="translate(0.000000,260.000000) scale(0.100000,-0.100000)"
fill="#000000" stroke="none">
<path d="M350 2586 c-148 -42 -260 -141 -322 -287 l-23 -54 0 -935 c0 -878 1
-938 18 -989 45 -134 145 -238 282 -295 49 -20 66 -21 980 -23 l930 -3 66 24
c139 49 241 148 293 284 21 57 21 64 23 972 3 961 3 950 -40 1050 -35 79 -111
162 -191 209 -102 58 -50 55 -1051 57 -712 2 -930 -1 -965 -10z"/>
</g>
</svg>
